<svg xmlns="http://www.w3.org/2000/svg" width="840" height="658" viewBox="0 0 840 658"><rect width="840" height="658" fill="#ffffff"/><g fill="none" stroke="#1e293b" stroke-width="1.2"><line x1="464.0625" y1="505" x2="464.0625" y2="575"/><line x1="300" y1="505" x2="464.0625" y2="505"/><line x1="540" y1="575" x2="464.0625" y2="575"/></g><g fill="none" stroke="#1e293b" stroke-width="1.2"><line x1="690" y1="85" x2="690" y2="537"/><line x1="690" y1="537" x2="300" y2="537"/><line x1="300" y1="537" x2="300" y2="575"/></g><g fill="none" stroke="#1e293b" stroke-width="1.2"><line x1="300" y1="85" x2="300" y2="55"/><line x1="300" y1="55" x2="540" y2="55"/><line x1="540" y1="55" x2="540" y2="85"/></g><g fill="none" stroke="#1e293b" stroke-width="1.2"><line x1="600" y1="85" x2="600" y2="117"/><line x1="600" y1="117" x2="450" y2="117"/></g><g fill="none" stroke="#1e293b" stroke-width="1.2"><line x1="300" y1="155" x2="305" y2="155"/><line x1="305" y1="155" x2="305" y2="225"/><line x1="305" y1="225" x2="540" y2="225"/></g><g fill="none" stroke="#1e293b" stroke-width="1.2"><line x1="450" y1="99" x2="535" y2="99"/><line x1="535" y1="99" x2="535" y2="123"/><line x1="535" y1="123" x2="600" y2="123"/><line x1="600" y1="123" x2="600" y2="225"/></g><g fill="none" stroke="#1e293b" stroke-width="1.2"><line x1="300" y1="225" x2="300" y2="257"/><line x1="300" y1="257" x2="540" y2="257"/><line x1="540" y1="257" x2="540" y2="295"/></g><g fill="none" stroke="#1e293b" stroke-width="1.2"><line x1="450" y1="81" x2="456" y2="81"/><line x1="456" y1="81" x2="456" y2="263"/><line x1="456" y1="263" x2="600" y2="263"/><line x1="600" y1="263" x2="600" y2="295"/></g><g fill="none" stroke="#1e293b" stroke-width="1.2"><line x1="497.0625" y1="295" x2="497.0625" y2="365"/><line x1="300" y1="295" x2="497.0625" y2="295"/><line x1="540" y1="365" x2="497.0625" y2="365"/></g><g fill="none" stroke="#1e293b" stroke-width="1.2"><line x1="390" y1="153" x2="390" y2="327"/><line x1="390" y1="327" x2="600" y2="327"/><line x1="600" y1="327" x2="600" y2="365"/></g><g fill="none" stroke="#1e293b" stroke-width="1.2"><line x1="300" y1="365" x2="305" y2="365"/><line x1="305" y1="365" x2="305" y2="435"/><line x1="305" y1="435" x2="540" y2="435"/></g><g fill="none" stroke="#1e293b" stroke-width="1.2"><line x1="390" y1="117" x2="384" y2="117"/><line x1="384" y1="117" x2="384" y2="397"/><line x1="384" y1="397" x2="600" y2="397"/><line x1="600" y1="397" x2="600" y2="435"/></g><g fill="none" stroke="#1e293b" stroke-width="1.2"><line x1="300" y1="435" x2="300" y2="467"/><line x1="300" y1="467" x2="540" y2="467"/><line x1="540" y1="467" x2="540" y2="505"/></g><g fill="none" stroke="#1e293b" stroke-width="1.2"><line x1="525.9375" y1="153" x2="525.9375" y2="155"/><line x1="450" y1="153" x2="525.9375" y2="153"/><line x1="540" y1="155" x2="525.9375" y2="155"/></g><g><line x1="90" y1="85" x2="77" y2="85" stroke="#1e293b" stroke-width="1.2"/><text x="74" y="87.5" text-anchor="end" font-size="6.5" font-family="monospace" fill="#64748b">VCC</text></g><g><line x1="240" y1="85" x2="227" y2="85" stroke="#1e293b" stroke-width="1.2"/><text x="224" y="87.5" text-anchor="end" font-size="6.5" font-family="monospace" fill="#64748b">VCC</text></g><g><line x1="450" y1="135" x2="463" y2="135" stroke="#1e293b" stroke-width="1.2"/><text x="466" y="137.5" text-anchor="start" font-size="6.5" font-family="monospace" fill="#64748b">VCC</text></g><g><line x1="240" y1="155" x2="227" y2="155" stroke="#1e293b" stroke-width="1.2"/><text x="224" y="157.5" text-anchor="end" font-size="6.5" font-family="monospace" fill="#64748b">VCC</text></g><g><line x1="240" y1="225" x2="227" y2="225" stroke="#1e293b" stroke-width="1.2"/><text x="224" y="227.5" text-anchor="end" font-size="6.5" font-family="monospace" fill="#64748b">VCC</text></g><g><line x1="240" y1="295" x2="227" y2="295" stroke="#1e293b" stroke-width="1.2"/><text x="224" y="297.5" text-anchor="end" font-size="6.5" font-family="monospace" fill="#64748b">VCC</text></g><g><line x1="240" y1="365" x2="227" y2="365" stroke="#1e293b" stroke-width="1.2"/><text x="224" y="367.5" text-anchor="end" font-size="6.5" font-family="monospace" fill="#64748b">VCC</text></g><g><line x1="240" y1="435" x2="227" y2="435" stroke="#1e293b" stroke-width="1.2"/><text x="224" y="437.5" text-anchor="end" font-size="6.5" font-family="monospace" fill="#64748b">VCC</text></g><g><line x1="240" y1="505" x2="227" y2="505" stroke="#1e293b" stroke-width="1.2"/><text x="224" y="507.5" text-anchor="end" font-size="6.5" font-family="monospace" fill="#64748b">VCC</text></g><g><line x1="240" y1="575" x2="227" y2="575" stroke="#1e293b" stroke-width="1.2"/><text x="224" y="577.5" text-anchor="end" font-size="6.5" font-family="monospace" fill="#64748b">VCC</text></g><g><line x1="390" y1="81" x2="377" y2="81" stroke="#1e293b" stroke-width="1.2"/><text x="374" y="83.5" text-anchor="end" font-size="6.5" font-family="monospace" fill="#64748b">N15</text></g><g><line x1="600" y1="505" x2="613" y2="505" stroke="#1e293b" stroke-width="1.2"/><text x="616" y="507.5" text-anchor="start" font-size="6.5" font-family="monospace" fill="#64748b">N15</text></g><g><line x1="390" y1="99" x2="377" y2="99" stroke="#1e293b" stroke-width="1.2"/><text x="374" y="101.5" text-anchor="end" font-size="6.5" font-family="monospace" fill="#64748b">N16</text></g><g><line x1="600" y1="575" x2="613" y2="575" stroke="#1e293b" stroke-width="1.2"/><text x="616" y="577.5" text-anchor="start" font-size="6.5" font-family="monospace" fill="#64748b">N16</text></g><g><line x1="750" y1="85" x2="763" y2="85" stroke="#1e293b" stroke-width="1.2"/><text x="766" y="87.5" text-anchor="start" font-size="6.5" font-family="monospace" fill="#64748b">N17</text></g><g><line x1="390" y1="135" x2="377" y2="135" stroke="#1e293b" stroke-width="1.2"/><text x="374" y="137.5" text-anchor="end" font-size="6.5" font-family="monospace" fill="#64748b">N17</text></g><g transform="translate(120 85)" stroke="#1e293b" stroke-width="1.6" fill="none" stroke-linecap="round"><path d="M -30 0 L 0 0 L 0 -10 M -6 -10 L 6 -10"/><text x="0" y="-24" text-anchor="middle" font-size="9" font-family="monospace" fill="#64748b" stroke="none">vcc1</text></g><g transform="translate(570 155)" stroke="#1e293b" stroke-width="1.6" fill="none" stroke-linecap="round"><path d="M -30 0 L 0 0 L 0 8 M -9 8 L 9 8 M -6 12 L 6 12 M -3 16 L 3 16"/><text x="0" y="-24" text-anchor="middle" font-size="9" font-family="monospace" fill="#64748b" stroke="none">gnd1</text></g><g transform="translate(270 85)" stroke="#1e293b" stroke-width="1.6" fill="none" stroke-linecap="round"><path d="M -30 0 L -18 0 L -14 -7 L -6 7 L 2 -7 L 10 7 L 14 0 L 30 0"/><text x="0" y="19" text-anchor="middle" font-size="8" font-family="monospace" fill="#64748b" stroke="none">470Ω</text><text x="0" y="-24" text-anchor="middle" font-size="9" font-family="monospace" fill="#64748b" stroke="none">r0</text></g><g transform="translate(270 155)" stroke="#1e293b" stroke-width="1.6" fill="none" stroke-linecap="round"><path d="M -30 0 L -18 0 L -14 -7 L -6 7 L 2 -7 L 10 7 L 14 0 L 30 0"/><text x="0" y="19" text-anchor="middle" font-size="8" font-family="monospace" fill="#64748b" stroke="none">470Ω</text><text x="0" y="-24" text-anchor="middle" font-size="9" font-family="monospace" fill="#64748b" stroke="none">r1</text></g><g transform="translate(270 225)" stroke="#1e293b" stroke-width="1.6" fill="none" stroke-linecap="round"><path d="M -30 0 L -18 0 L -14 -7 L -6 7 L 2 -7 L 10 7 L 14 0 L 30 0"/><text x="0" y="19" text-anchor="middle" font-size="8" font-family="monospace" fill="#64748b" stroke="none">470Ω</text><text x="0" y="-24" text-anchor="middle" font-size="9" font-family="monospace" fill="#64748b" stroke="none">r2</text></g><g transform="translate(270 295)" stroke="#1e293b" stroke-width="1.6" fill="none" stroke-linecap="round"><path d="M -30 0 L -18 0 L -14 -7 L -6 7 L 2 -7 L 10 7 L 14 0 L 30 0"/><text x="0" y="19" text-anchor="middle" font-size="8" font-family="monospace" fill="#64748b" stroke="none">470Ω</text><text x="0" y="-24" text-anchor="middle" font-size="9" font-family="monospace" fill="#64748b" stroke="none">r3</text></g><g transform="translate(270 365)" stroke="#1e293b" stroke-width="1.6" fill="none" stroke-linecap="round"><path d="M -30 0 L -18 0 L -14 -7 L -6 7 L 2 -7 L 10 7 L 14 0 L 30 0"/><text x="0" y="19" text-anchor="middle" font-size="8" font-family="monospace" fill="#64748b" stroke="none">470Ω</text><text x="0" y="-24" text-anchor="middle" font-size="9" font-family="monospace" fill="#64748b" stroke="none">r4</text></g><g transform="translate(270 435)" stroke="#1e293b" stroke-width="1.6" fill="none" stroke-linecap="round"><path d="M -30 0 L -18 0 L -14 -7 L -6 7 L 2 -7 L 10 7 L 14 0 L 30 0"/><text x="0" y="19" text-anchor="middle" font-size="8" font-family="monospace" fill="#64748b" stroke="none">470Ω</text><text x="0" y="-24" text-anchor="middle" font-size="9" font-family="monospace" fill="#64748b" stroke="none">r5</text></g><g transform="translate(270 505)" stroke="#1e293b" stroke-width="1.6" fill="none" stroke-linecap="round"><path d="M -30 0 L -18 0 L -14 -7 L -6 7 L 2 -7 L 10 7 L 14 0 L 30 0"/><text x="0" y="19" text-anchor="middle" font-size="8" font-family="monospace" fill="#64748b" stroke="none">470Ω</text><text x="0" y="-24" text-anchor="middle" font-size="9" font-family="monospace" fill="#64748b" stroke="none">r6</text></g><g transform="translate(270 575)" stroke="#1e293b" stroke-width="1.6" fill="none" stroke-linecap="round"><path d="M -30 0 L -18 0 L -14 -7 L -6 7 L 2 -7 L 10 7 L 14 0 L 30 0"/><text x="0" y="19" text-anchor="middle" font-size="8" font-family="monospace" fill="#64748b" stroke="none">470Ω</text><text x="0" y="-24" text-anchor="middle" font-size="9" font-family="monospace" fill="#64748b" stroke="none">r7</text></g><g transform="translate(570 85)" stroke="#1e293b" stroke-width="1.6" fill="none" stroke-linecap="round"><path d="M -30 0 L -8 0 M 8 0 L 30 0"/><path d="M -8 -8 L -8 8 L 8 0 Z"/><path d="M 8 -8 L 8 8"/><path d="M 2 -10 L 8 -16 M 8 -16 L 5 -15 M 8 -16 L 7 -13 M 8 -8 L 14 -14 M 14 -14 L 11 -13 M 14 -14 L 13 -11" stroke-width="1.1"/><text x="0" y="-24" text-anchor="middle" font-size="9" font-family="monospace" fill="#64748b" stroke="none">d0</text></g><g transform="translate(570 225)" stroke="#1e293b" stroke-width="1.6" fill="none" stroke-linecap="round"><path d="M -30 0 L -8 0 M 8 0 L 30 0"/><path d="M -8 -8 L -8 8 L 8 0 Z"/><path d="M 8 -8 L 8 8"/><path d="M 2 -10 L 8 -16 M 8 -16 L 5 -15 M 8 -16 L 7 -13 M 8 -8 L 14 -14 M 14 -14 L 11 -13 M 14 -14 L 13 -11" stroke-width="1.1"/><text x="0" y="-24" text-anchor="middle" font-size="9" font-family="monospace" fill="#64748b" stroke="none">d1</text></g><g transform="translate(570 295)" stroke="#1e293b" stroke-width="1.6" fill="none" stroke-linecap="round"><path d="M -30 0 L -8 0 M 8 0 L 30 0"/><path d="M -8 -8 L -8 8 L 8 0 Z"/><path d="M 8 -8 L 8 8"/><path d="M 2 -10 L 8 -16 M 8 -16 L 5 -15 M 8 -16 L 7 -13 M 8 -8 L 14 -14 M 14 -14 L 11 -13 M 14 -14 L 13 -11" stroke-width="1.1"/><text x="0" y="-24" text-anchor="middle" font-size="9" font-family="monospace" fill="#64748b" stroke="none">d2</text></g><g transform="translate(570 365)" stroke="#1e293b" stroke-width="1.6" fill="none" stroke-linecap="round"><path d="M -30 0 L -8 0 M 8 0 L 30 0"/><path d="M -8 -8 L -8 8 L 8 0 Z"/><path d="M 8 -8 L 8 8"/><path d="M 2 -10 L 8 -16 M 8 -16 L 5 -15 M 8 -16 L 7 -13 M 8 -8 L 14 -14 M 14 -14 L 11 -13 M 14 -14 L 13 -11" stroke-width="1.1"/><text x="0" y="-24" text-anchor="middle" font-size="9" font-family="monospace" fill="#64748b" stroke="none">d3</text></g><g transform="translate(570 435)" stroke="#1e293b" stroke-width="1.6" fill="none" stroke-linecap="round"><path d="M -30 0 L -8 0 M 8 0 L 30 0"/><path d="M -8 -8 L -8 8 L 8 0 Z"/><path d="M 8 -8 L 8 8"/><path d="M 2 -10 L 8 -16 M 8 -16 L 5 -15 M 8 -16 L 7 -13 M 8 -8 L 14 -14 M 14 -14 L 11 -13 M 14 -14 L 13 -11" stroke-width="1.1"/><text x="0" y="-24" text-anchor="middle" font-size="9" font-family="monospace" fill="#64748b" stroke="none">d4</text></g><g transform="translate(570 505)" stroke="#1e293b" stroke-width="1.6" fill="none" stroke-linecap="round"><path d="M -30 0 L -8 0 M 8 0 L 30 0"/><path d="M -8 -8 L -8 8 L 8 0 Z"/><path d="M 8 -8 L 8 8"/><path d="M 2 -10 L 8 -16 M 8 -16 L 5 -15 M 8 -16 L 7 -13 M 8 -8 L 14 -14 M 14 -14 L 11 -13 M 14 -14 L 13 -11" stroke-width="1.1"/><text x="0" y="-24" text-anchor="middle" font-size="9" font-family="monospace" fill="#64748b" stroke="none">d5</text></g><g transform="translate(570 575)" stroke="#1e293b" stroke-width="1.6" fill="none" stroke-linecap="round"><path d="M -30 0 L -8 0 M 8 0 L 30 0"/><path d="M -8 -8 L -8 8 L 8 0 Z"/><path d="M 8 -8 L 8 8"/><path d="M 2 -10 L 8 -16 M 8 -16 L 5 -15 M 8 -16 L 7 -13 M 8 -8 L 14 -14 M 14 -14 L 11 -13 M 14 -14 L 13 -11" stroke-width="1.1"/><text x="0" y="-24" text-anchor="middle" font-size="9" font-family="monospace" fill="#64748b" stroke="none">d6</text></g><g transform="translate(720 85)" stroke="#1e293b" stroke-width="1.6" fill="none" stroke-linecap="round"><path d="M -30 0 L -8 0 M 8 0 L 30 0"/><path d="M -8 -8 L -8 8 L 8 0 Z"/><path d="M 8 -8 L 8 8"/><path d="M 2 -10 L 8 -16 M 8 -16 L 5 -15 M 8 -16 L 7 -13 M 8 -8 L 14 -14 M 14 -14 L 11 -13 M 14 -14 L 13 -11" stroke-width="1.1"/><text x="0" y="-24" text-anchor="middle" font-size="9" font-family="monospace" fill="#64748b" stroke="none">d7</text></g><g transform="translate(420 117)" stroke="#1e293b" stroke-width="1.6" fill="none" stroke-linecap="round"><rect x="-26" y="-52" width="52" height="104" rx="2"/><path d="M -26 -36 L -30 -36" stroke-width="1.2"/><text x="-22" y="-33.5" text-anchor="start" font-size="6.5" font-family="monospace" fill="#64748b" stroke="none">d2</text><path d="M -26 -18 L -30 -18" stroke-width="1.2"/><text x="-22" y="-15.5" text-anchor="start" font-size="6.5" font-family="monospace" fill="#64748b" stroke="none">d3</text><path d="M -26 0 L -30 0" stroke-width="1.2"/><text x="-22" y="2.5" text-anchor="start" font-size="6.5" font-family="monospace" fill="#64748b" stroke="none">d4</text><path d="M -26 18 L -30 18" stroke-width="1.2"/><text x="-22" y="20.5" text-anchor="start" font-size="6.5" font-family="monospace" fill="#64748b" stroke="none">d5</text><path d="M -26 36 L -30 36" stroke-width="1.2"/><text x="-22" y="38.5" text-anchor="start" font-size="6.5" font-family="monospace" fill="#64748b" stroke="none">d7</text><path d="M 26 -36 L 30 -36" stroke-width="1.2"/><text x="22" y="-33.5" text-anchor="end" font-size="6.5" font-family="monospace" fill="#64748b" stroke="none">d8</text><path d="M 26 -18 L 30 -18" stroke-width="1.2"/><text x="22" y="-15.5" text-anchor="end" font-size="6.5" font-family="monospace" fill="#64748b" stroke="none">d12</text><path d="M 26 0 L 30 0" stroke-width="1.2"/><text x="22" y="2.5" text-anchor="end" font-size="6.5" font-family="monospace" fill="#64748b" stroke="none">d13</text><path d="M 26 18 L 30 18" stroke-width="1.2"/><text x="22" y="20.5" text-anchor="end" font-size="6.5" font-family="monospace" fill="#64748b" stroke="none">5v</text><path d="M 26 36 L 30 36" stroke-width="1.2"/><text x="22" y="38.5" text-anchor="end" font-size="6.5" font-family="monospace" fill="#64748b" stroke="none">gnd</text><text x="0" y="-43" text-anchor="middle" font-size="7" font-family="monospace" fill="#1e293b" stroke="none">arduino_u</text><text x="0" y="-24" text-anchor="middle" font-size="9" font-family="monospace" fill="#64748b" stroke="none">uno1</text></g></svg>
