<svg xmlns="http://www.w3.org/2000/svg" width="840" height="722" viewBox="0 0 840 722"><rect width="840" height="722" fill="#ffffff"/><g fill="none" stroke="#1e293b" stroke-width="1.2"><line x1="690" y1="85" x2="690" y2="639"/><line x1="690" y1="639" x2="300" y2="639"/></g><g fill="none" stroke="#1e293b" stroke-width="1.2"><line x1="467.8235294117647" y1="85" x2="467.8235294117647" y2="85"/><line x1="450" y1="85" x2="467.8235294117647" y2="85"/><line x1="540" y1="85" x2="467.8235294117647" y2="85"/></g><g fill="none" stroke="#1e293b" stroke-width="1.2"><line x1="471.70588235294116" y1="219" x2="471.70588235294116" y2="225"/><line x1="300" y1="219" x2="471.70588235294116" y2="219"/><line x1="540" y1="225" x2="471.70588235294116" y2="225"/></g><g fill="none" stroke="#1e293b" stroke-width="1.2"><line x1="300" y1="117" x2="600" y2="117"/><line x1="600" y1="117" x2="600" y2="225"/></g><g fill="none" stroke="#1e293b" stroke-width="1.2"><line x1="479.47058823529414" y1="289" x2="479.47058823529414" y2="295"/><line x1="300" y1="289" x2="479.47058823529414" y2="289"/><line x1="540" y1="295" x2="479.47058823529414" y2="295"/></g><g fill="none" stroke="#1e293b" stroke-width="1.2"><line x1="300" y1="99" x2="305" y2="99"/><line x1="305" y1="99" x2="305" y2="251"/><line x1="305" y1="251" x2="600" y2="251"/><line x1="600" y1="251" x2="600" y2="295"/></g><g fill="none" stroke="#1e293b" stroke-width="1.2"><line x1="487.2352941176471" y1="359" x2="487.2352941176471" y2="365"/><line x1="300" y1="359" x2="487.2352941176471" y2="359"/><line x1="540" y1="365" x2="487.2352941176471" y2="365"/></g><g fill="none" stroke="#1e293b" stroke-width="1.2"><line x1="300" y1="81" x2="385" y2="81"/><line x1="385" y1="81" x2="385" y2="321"/><line x1="385" y1="321" x2="600" y2="321"/><line x1="600" y1="321" x2="600" y2="365"/></g><g fill="none" stroke="#1e293b" stroke-width="1.2"><line x1="495" y1="429" x2="495" y2="435"/><line x1="300" y1="429" x2="495" y2="429"/><line x1="540" y1="435" x2="495" y2="435"/></g><g fill="none" stroke="#1e293b" stroke-width="1.2"><line x1="240" y1="153" x2="240" y2="187"/><line x1="240" y1="187" x2="605" y2="187"/><line x1="605" y1="187" x2="605" y2="435"/><line x1="605" y1="435" x2="600" y2="435"/></g><g fill="none" stroke="#1e293b" stroke-width="1.2"><line x1="502.7647058823529" y1="499" x2="502.7647058823529" y2="505"/><line x1="300" y1="499" x2="502.7647058823529" y2="499"/><line x1="540" y1="505" x2="502.7647058823529" y2="505"/></g><g fill="none" stroke="#1e293b" stroke-width="1.2"><line x1="240" y1="117" x2="235" y2="117"/><line x1="235" y1="117" x2="235" y2="461"/><line x1="235" y1="461" x2="600" y2="461"/><line x1="600" y1="461" x2="600" y2="505"/></g><g fill="none" stroke="#1e293b" stroke-width="1.2"><line x1="510.52941176470586" y1="569" x2="510.52941176470586" y2="575"/><line x1="300" y1="569" x2="510.52941176470586" y2="569"/><line x1="540" y1="575" x2="510.52941176470586" y2="575"/></g><g fill="none" stroke="#1e293b" stroke-width="1.2"><line x1="240" y1="81" x2="155" y2="81"/><line x1="155" y1="81" x2="155" y2="531"/><line x1="155" y1="531" x2="600" y2="531"/><line x1="600" y1="531" x2="600" y2="575"/></g><g fill="none" stroke="#1e293b" stroke-width="1.2"><line x1="750" y1="85" x2="750" y2="55"/><line x1="750" y1="55" x2="235" y2="55"/><line x1="235" y1="55" x2="235" y2="99"/><line x1="235" y1="99" x2="240" y2="99"/></g><g fill="none" stroke="#1e293b" stroke-width="1.2"><line x1="526.0588235294117" y1="153" x2="526.0588235294117" y2="155"/><line x1="300" y1="153" x2="526.0588235294117" y2="153"/><line x1="540" y1="155" x2="526.0588235294117" y2="155"/></g><g><line x1="90" y1="85" x2="77" y2="85" stroke="#1e293b" stroke-width="1.2"/><text x="74" y="87.5" text-anchor="end" font-size="6.5" font-family="monospace" fill="#64748b">VCC</text></g><g><line x1="390" y1="85" x2="377" y2="85" stroke="#1e293b" stroke-width="1.2"/><text x="374" y="87.5" text-anchor="end" font-size="6.5" font-family="monospace" fill="#64748b">VCC</text></g><g><line x1="300" y1="135" x2="313" y2="135" stroke="#1e293b" stroke-width="1.2"/><text x="316" y="137.5" text-anchor="start" font-size="6.5" font-family="monospace" fill="#64748b">VCC</text></g><g><line x1="240" y1="219" x2="227" y2="219" stroke="#1e293b" stroke-width="1.2"/><text x="224" y="221.5" text-anchor="end" font-size="6.5" font-family="monospace" fill="#64748b">VCC</text></g><g><line x1="240" y1="289" x2="227" y2="289" stroke="#1e293b" stroke-width="1.2"/><text x="224" y="291.5" text-anchor="end" font-size="6.5" font-family="monospace" fill="#64748b">VCC</text></g><g><line x1="240" y1="359" x2="227" y2="359" stroke="#1e293b" stroke-width="1.2"/><text x="224" y="361.5" text-anchor="end" font-size="6.5" font-family="monospace" fill="#64748b">VCC</text></g><g><line x1="240" y1="429" x2="227" y2="429" stroke="#1e293b" stroke-width="1.2"/><text x="224" y="431.5" text-anchor="end" font-size="6.5" font-family="monospace" fill="#64748b">VCC</text></g><g><line x1="240" y1="499" x2="227" y2="499" stroke="#1e293b" stroke-width="1.2"/><text x="224" y="501.5" text-anchor="end" font-size="6.5" font-family="monospace" fill="#64748b">VCC</text></g><g><line x1="240" y1="569" x2="227" y2="569" stroke="#1e293b" stroke-width="1.2"/><text x="224" y="571.5" text-anchor="end" font-size="6.5" font-family="monospace" fill="#64748b">VCC</text></g><g><line x1="240" y1="639" x2="227" y2="639" stroke="#1e293b" stroke-width="1.2"/><text x="224" y="641.5" text-anchor="end" font-size="6.5" font-family="monospace" fill="#64748b">VCC</text></g><g><line x1="600" y1="85" x2="613" y2="85" stroke="#1e293b" stroke-width="1.2"/><text x="616" y="87.5" text-anchor="start" font-size="6.5" font-family="monospace" fill="#64748b">N17</text></g><g><line x1="240" y1="135" x2="227" y2="135" stroke="#1e293b" stroke-width="1.2"/><text x="224" y="137.5" text-anchor="end" font-size="6.5" font-family="monospace" fill="#64748b">N17</text></g><g transform="translate(120 85)" stroke="#1e293b" stroke-width="1.6" fill="none" stroke-linecap="round"><path d="M -30 0 L 0 0 L 0 -10 M -6 -10 L 6 -10"/><text x="0" y="-24" text-anchor="middle" font-size="9" font-family="monospace" fill="#64748b" stroke="none">vcc1</text></g><g transform="translate(570 155)" stroke="#1e293b" stroke-width="1.6" fill="none" stroke-linecap="round"><path d="M -30 0 L 0 0 L 0 8 M -9 8 L 9 8 M -6 12 L 6 12 M -3 16 L 3 16"/><text x="0" y="-24" text-anchor="middle" font-size="9" font-family="monospace" fill="#64748b" stroke="none">gnd1</text></g><g transform="translate(270 219)" stroke="#1e293b" stroke-width="1.6" fill="none" stroke-linecap="round"><path d="M -30 0 L -18 0 L -14 -7 L -6 7 L 2 -7 L 10 7 L 14 0 L 30 0"/><text x="0" y="19" text-anchor="middle" font-size="8" font-family="monospace" fill="#64748b" stroke="none">470Ω</text><text x="0" y="-24" text-anchor="middle" font-size="9" font-family="monospace" fill="#64748b" stroke="none">r0</text></g><g transform="translate(270 289)" stroke="#1e293b" stroke-width="1.6" fill="none" stroke-linecap="round"><path d="M -30 0 L -18 0 L -14 -7 L -6 7 L 2 -7 L 10 7 L 14 0 L 30 0"/><text x="0" y="19" text-anchor="middle" font-size="8" font-family="monospace" fill="#64748b" stroke="none">470Ω</text><text x="0" y="-24" text-anchor="middle" font-size="9" font-family="monospace" fill="#64748b" stroke="none">r1</text></g><g transform="translate(270 359)" stroke="#1e293b" stroke-width="1.6" fill="none" stroke-linecap="round"><path d="M -30 0 L -18 0 L -14 -7 L -6 7 L 2 -7 L 10 7 L 14 0 L 30 0"/><text x="0" y="19" text-anchor="middle" font-size="8" font-family="monospace" fill="#64748b" stroke="none">470Ω</text><text x="0" y="-24" text-anchor="middle" font-size="9" font-family="monospace" fill="#64748b" stroke="none">r2</text></g><g transform="translate(270 429)" stroke="#1e293b" stroke-width="1.6" fill="none" stroke-linecap="round"><path d="M -30 0 L -18 0 L -14 -7 L -6 7 L 2 -7 L 10 7 L 14 0 L 30 0"/><text x="0" y="19" text-anchor="middle" font-size="8" font-family="monospace" fill="#64748b" stroke="none">470Ω</text><text x="0" y="-24" text-anchor="middle" font-size="9" font-family="monospace" fill="#64748b" stroke="none">r3</text></g><g transform="translate(270 499)" stroke="#1e293b" stroke-width="1.6" fill="none" stroke-linecap="round"><path d="M -30 0 L -18 0 L -14 -7 L -6 7 L 2 -7 L 10 7 L 14 0 L 30 0"/><text x="0" y="19" text-anchor="middle" font-size="8" font-family="monospace" fill="#64748b" stroke="none">470Ω</text><text x="0" y="-24" text-anchor="middle" font-size="9" font-family="monospace" fill="#64748b" stroke="none">r4</text></g><g transform="translate(270 569)" stroke="#1e293b" stroke-width="1.6" fill="none" stroke-linecap="round"><path d="M -30 0 L -18 0 L -14 -7 L -6 7 L 2 -7 L 10 7 L 14 0 L 30 0"/><text x="0" y="19" text-anchor="middle" font-size="8" font-family="monospace" fill="#64748b" stroke="none">470Ω</text><text x="0" y="-24" text-anchor="middle" font-size="9" font-family="monospace" fill="#64748b" stroke="none">r5</text></g><g transform="translate(270 639)" stroke="#1e293b" stroke-width="1.6" fill="none" stroke-linecap="round"><path d="M -30 0 L -18 0 L -14 -7 L -6 7 L 2 -7 L 10 7 L 14 0 L 30 0"/><text x="0" y="19" text-anchor="middle" font-size="8" font-family="monospace" fill="#64748b" stroke="none">470Ω</text><text x="0" y="-24" text-anchor="middle" font-size="9" font-family="monospace" fill="#64748b" stroke="none">r6</text></g><g transform="translate(420 85)" stroke="#1e293b" stroke-width="1.6" fill="none" stroke-linecap="round"><path d="M -30 0 L -18 0 L -14 -7 L -6 7 L 2 -7 L 10 7 L 14 0 L 30 0"/><text x="0" y="19" text-anchor="middle" font-size="8" font-family="monospace" fill="#64748b" stroke="none">470Ω</text><text x="0" y="-24" text-anchor="middle" font-size="9" font-family="monospace" fill="#64748b" stroke="none">r7</text></g><g transform="translate(570 225)" stroke="#1e293b" stroke-width="1.6" fill="none" stroke-linecap="round"><path d="M -30 0 L -8 0 M 8 0 L 30 0"/><path d="M -8 -8 L -8 8 L 8 0 Z"/><path d="M 8 -8 L 8 8"/><path d="M 2 -10 L 8 -16 M 8 -16 L 5 -15 M 8 -16 L 7 -13 M 8 -8 L 14 -14 M 14 -14 L 11 -13 M 14 -14 L 13 -11" stroke-width="1.1"/><text x="0" y="-24" text-anchor="middle" font-size="9" font-family="monospace" fill="#64748b" stroke="none">d0</text></g><g transform="translate(570 295)" stroke="#1e293b" stroke-width="1.6" fill="none" stroke-linecap="round"><path d="M -30 0 L -8 0 M 8 0 L 30 0"/><path d="M -8 -8 L -8 8 L 8 0 Z"/><path d="M 8 -8 L 8 8"/><path d="M 2 -10 L 8 -16 M 8 -16 L 5 -15 M 8 -16 L 7 -13 M 8 -8 L 14 -14 M 14 -14 L 11 -13 M 14 -14 L 13 -11" stroke-width="1.1"/><text x="0" y="-24" text-anchor="middle" font-size="9" font-family="monospace" fill="#64748b" stroke="none">d1</text></g><g transform="translate(570 365)" stroke="#1e293b" stroke-width="1.6" fill="none" stroke-linecap="round"><path d="M -30 0 L -8 0 M 8 0 L 30 0"/><path d="M -8 -8 L -8 8 L 8 0 Z"/><path d="M 8 -8 L 8 8"/><path d="M 2 -10 L 8 -16 M 8 -16 L 5 -15 M 8 -16 L 7 -13 M 8 -8 L 14 -14 M 14 -14 L 11 -13 M 14 -14 L 13 -11" stroke-width="1.1"/><text x="0" y="-24" text-anchor="middle" font-size="9" font-family="monospace" fill="#64748b" stroke="none">d2</text></g><g transform="translate(570 435)" stroke="#1e293b" stroke-width="1.6" fill="none" stroke-linecap="round"><path d="M -30 0 L -8 0 M 8 0 L 30 0"/><path d="M -8 -8 L -8 8 L 8 0 Z"/><path d="M 8 -8 L 8 8"/><path d="M 2 -10 L 8 -16 M 8 -16 L 5 -15 M 8 -16 L 7 -13 M 8 -8 L 14 -14 M 14 -14 L 11 -13 M 14 -14 L 13 -11" stroke-width="1.1"/><text x="0" y="-24" text-anchor="middle" font-size="9" font-family="monospace" fill="#64748b" stroke="none">d3</text></g><g transform="translate(570 505)" stroke="#1e293b" stroke-width="1.6" fill="none" stroke-linecap="round"><path d="M -30 0 L -8 0 M 8 0 L 30 0"/><path d="M -8 -8 L -8 8 L 8 0 Z"/><path d="M 8 -8 L 8 8"/><path d="M 2 -10 L 8 -16 M 8 -16 L 5 -15 M 8 -16 L 7 -13 M 8 -8 L 14 -14 M 14 -14 L 11 -13 M 14 -14 L 13 -11" stroke-width="1.1"/><text x="0" y="-24" text-anchor="middle" font-size="9" font-family="monospace" fill="#64748b" stroke="none">d4</text></g><g transform="translate(570 575)" stroke="#1e293b" stroke-width="1.6" fill="none" stroke-linecap="round"><path d="M -30 0 L -8 0 M 8 0 L 30 0"/><path d="M -8 -8 L -8 8 L 8 0 Z"/><path d="M 8 -8 L 8 8"/><path d="M 2 -10 L 8 -16 M 8 -16 L 5 -15 M 8 -16 L 7 -13 M 8 -8 L 14 -14 M 14 -14 L 11 -13 M 14 -14 L 13 -11" stroke-width="1.1"/><text x="0" y="-24" text-anchor="middle" font-size="9" font-family="monospace" fill="#64748b" stroke="none">d5</text></g><g transform="translate(720 85)" stroke="#1e293b" stroke-width="1.6" fill="none" stroke-linecap="round"><path d="M -30 0 L -8 0 M 8 0 L 30 0"/><path d="M -8 -8 L -8 8 L 8 0 Z"/><path d="M 8 -8 L 8 8"/><path d="M 2 -10 L 8 -16 M 8 -16 L 5 -15 M 8 -16 L 7 -13 M 8 -8 L 14 -14 M 14 -14 L 11 -13 M 14 -14 L 13 -11" stroke-width="1.1"/><text x="0" y="-24" text-anchor="middle" font-size="9" font-family="monospace" fill="#64748b" stroke="none">d6</text></g><g transform="translate(570 85)" stroke="#1e293b" stroke-width="1.6" fill="none" stroke-linecap="round"><path d="M -30 0 L -8 0 M 8 0 L 30 0"/><path d="M -8 -8 L -8 8 L 8 0 Z"/><path d="M 8 -8 L 8 8"/><path d="M 2 -10 L 8 -16 M 8 -16 L 5 -15 M 8 -16 L 7 -13 M 8 -8 L 14 -14 M 14 -14 L 11 -13 M 14 -14 L 13 -11" stroke-width="1.1"/><text x="0" y="-24" text-anchor="middle" font-size="9" font-family="monospace" fill="#64748b" stroke="none">d7</text></g><g transform="translate(270 117)" stroke="#1e293b" stroke-width="1.6" fill="none" stroke-linecap="round"><rect x="-26" y="-52" width="52" height="104" rx="2"/><path d="M -26 -36 L -30 -36" stroke-width="1.2"/><text x="-22" y="-33.5" text-anchor="start" font-size="6.5" font-family="monospace" fill="#64748b" stroke="none">d2</text><path d="M -26 -18 L -30 -18" stroke-width="1.2"/><text x="-22" y="-15.5" text-anchor="start" font-size="6.5" font-family="monospace" fill="#64748b" stroke="none">d3</text><path d="M -26 0 L -30 0" stroke-width="1.2"/><text x="-22" y="2.5" text-anchor="start" font-size="6.5" font-family="monospace" fill="#64748b" stroke="none">d4</text><path d="M -26 18 L -30 18" stroke-width="1.2"/><text x="-22" y="20.5" text-anchor="start" font-size="6.5" font-family="monospace" fill="#64748b" stroke="none">d5</text><path d="M -26 36 L -30 36" stroke-width="1.2"/><text x="-22" y="38.5" text-anchor="start" font-size="6.5" font-family="monospace" fill="#64748b" stroke="none">d7</text><path d="M 26 -36 L 30 -36" stroke-width="1.2"/><text x="22" y="-33.5" text-anchor="end" font-size="6.5" font-family="monospace" fill="#64748b" stroke="none">d8</text><path d="M 26 -18 L 30 -18" stroke-width="1.2"/><text x="22" y="-15.5" text-anchor="end" font-size="6.5" font-family="monospace" fill="#64748b" stroke="none">d12</text><path d="M 26 0 L 30 0" stroke-width="1.2"/><text x="22" y="2.5" text-anchor="end" font-size="6.5" font-family="monospace" fill="#64748b" stroke="none">d13</text><path d="M 26 18 L 30 18" stroke-width="1.2"/><text x="22" y="20.5" text-anchor="end" font-size="6.5" font-family="monospace" fill="#64748b" stroke="none">5v</text><path d="M 26 36 L 30 36" stroke-width="1.2"/><text x="22" y="38.5" text-anchor="end" font-size="6.5" font-family="monospace" fill="#64748b" stroke="none">gnd</text><text x="0" y="-43" text-anchor="middle" font-size="7" font-family="monospace" fill="#1e293b" stroke="none">arduino_u</text><text x="0" y="-24" text-anchor="middle" font-size="9" font-family="monospace" fill="#64748b" stroke="none">mcu1</text></g></svg>
