<svg xmlns="http://www.w3.org/2000/svg" width="840" height="782" viewBox="0 0 840 782"><rect width="840" height="782" fill="#ffffff"/><g><line x1="240" y1="247" x2="227" y2="247" stroke="#1e293b" stroke-width="1.2"/><text x="224" y="249.5" text-anchor="end" font-size="6.5" font-family="monospace" fill="#64748b">N01</text></g><g><line x1="300" y1="247" x2="313" y2="247" stroke="#1e293b" stroke-width="1.2"/><text x="316" y="249.5" text-anchor="start" font-size="6.5" font-family="monospace" fill="#64748b">N01</text></g><g><line x1="540" y1="83" x2="527" y2="83" stroke="#1e293b" stroke-width="1.2"/><text x="524" y="85.5" text-anchor="end" font-size="6.5" font-family="monospace" fill="#64748b">N01</text></g><g><line x1="390" y1="501" x2="377" y2="501" stroke="#1e293b" stroke-width="1.2"/><text x="374" y="503.5" text-anchor="end" font-size="6.5" font-family="monospace" fill="#64748b">N02</text></g><g><line x1="600" y1="363" x2="613" y2="363" stroke="#1e293b" stroke-width="1.2"/><text x="616" y="365.5" text-anchor="start" font-size="6.5" font-family="monospace" fill="#64748b">N02</text></g><g><line x1="240" y1="337" x2="227" y2="337" stroke="#1e293b" stroke-width="1.2"/><text x="224" y="339.5" text-anchor="end" font-size="6.5" font-family="monospace" fill="#64748b">N03</text></g><g><line x1="300" y1="337" x2="313" y2="337" stroke="#1e293b" stroke-width="1.2"/><text x="316" y="339.5" text-anchor="start" font-size="6.5" font-family="monospace" fill="#64748b">N03</text></g><g><line x1="540" y1="433" x2="527" y2="433" stroke="#1e293b" stroke-width="1.2"/><text x="524" y="435.5" text-anchor="end" font-size="6.5" font-family="monospace" fill="#64748b">N03</text></g><g><line x1="390" y1="519" x2="377" y2="519" stroke="#1e293b" stroke-width="1.2"/><text x="374" y="521.5" text-anchor="end" font-size="6.5" font-family="monospace" fill="#64748b">N04</text></g><g><line x1="600" y1="433" x2="613" y2="433" stroke="#1e293b" stroke-width="1.2"/><text x="616" y="435.5" text-anchor="start" font-size="6.5" font-family="monospace" fill="#64748b">N04</text></g><g><line x1="240" y1="355" x2="227" y2="355" stroke="#1e293b" stroke-width="1.2"/><text x="224" y="357.5" text-anchor="end" font-size="6.5" font-family="monospace" fill="#64748b">N05</text></g><g><line x1="300" y1="355" x2="313" y2="355" stroke="#1e293b" stroke-width="1.2"/><text x="316" y="357.5" text-anchor="start" font-size="6.5" font-family="monospace" fill="#64748b">N05</text></g><g><line x1="540" y1="503" x2="527" y2="503" stroke="#1e293b" stroke-width="1.2"/><text x="524" y="505.5" text-anchor="end" font-size="6.5" font-family="monospace" fill="#64748b">N05</text></g><g><line x1="450" y1="429" x2="463" y2="429" stroke="#1e293b" stroke-width="1.2"/><text x="466" y="431.5" text-anchor="start" font-size="6.5" font-family="monospace" fill="#64748b">N06</text></g><g><line x1="600" y1="503" x2="613" y2="503" stroke="#1e293b" stroke-width="1.2"/><text x="616" y="505.5" text-anchor="start" font-size="6.5" font-family="monospace" fill="#64748b">N06</text></g><g><line x1="240" y1="373" x2="227" y2="373" stroke="#1e293b" stroke-width="1.2"/><text x="224" y="375.5" text-anchor="end" font-size="6.5" font-family="monospace" fill="#64748b">N07</text></g><g><line x1="300" y1="373" x2="313" y2="373" stroke="#1e293b" stroke-width="1.2"/><text x="316" y="375.5" text-anchor="start" font-size="6.5" font-family="monospace" fill="#64748b">N07</text></g><g><line x1="540" y1="573" x2="527" y2="573" stroke="#1e293b" stroke-width="1.2"/><text x="524" y="575.5" text-anchor="end" font-size="6.5" font-family="monospace" fill="#64748b">N07</text></g><g><line x1="450" y1="447" x2="463" y2="447" stroke="#1e293b" stroke-width="1.2"/><text x="466" y="449.5" text-anchor="start" font-size="6.5" font-family="monospace" fill="#64748b">N08</text></g><g><line x1="600" y1="573" x2="613" y2="573" stroke="#1e293b" stroke-width="1.2"/><text x="616" y="575.5" text-anchor="start" font-size="6.5" font-family="monospace" fill="#64748b">N08</text></g><g><line x1="240" y1="535" x2="227" y2="535" stroke="#1e293b" stroke-width="1.2"/><text x="224" y="537.5" text-anchor="end" font-size="6.5" font-family="monospace" fill="#64748b">N09</text></g><g><line x1="300" y1="535" x2="313" y2="535" stroke="#1e293b" stroke-width="1.2"/><text x="316" y="537.5" text-anchor="start" font-size="6.5" font-family="monospace" fill="#64748b">N09</text></g><g><line x1="450" y1="465" x2="463" y2="465" stroke="#1e293b" stroke-width="1.2"/><text x="466" y="467.5" text-anchor="start" font-size="6.5" font-family="monospace" fill="#64748b">N09</text></g><g><line x1="240" y1="517" x2="227" y2="517" stroke="#1e293b" stroke-width="1.2"/><text x="224" y="519.5" text-anchor="end" font-size="6.5" font-family="monospace" fill="#64748b">N10</text></g><g><line x1="300" y1="517" x2="313" y2="517" stroke="#1e293b" stroke-width="1.2"/><text x="316" y="519.5" text-anchor="start" font-size="6.5" font-family="monospace" fill="#64748b">N10</text></g><g><line x1="450" y1="483" x2="463" y2="483" stroke="#1e293b" stroke-width="1.2"/><text x="466" y="485.5" text-anchor="start" font-size="6.5" font-family="monospace" fill="#64748b">N10</text></g><g><line x1="240" y1="499" x2="227" y2="499" stroke="#1e293b" stroke-width="1.2"/><text x="224" y="501.5" text-anchor="end" font-size="6.5" font-family="monospace" fill="#64748b">N11</text></g><g><line x1="300" y1="499" x2="313" y2="499" stroke="#1e293b" stroke-width="1.2"/><text x="316" y="501.5" text-anchor="start" font-size="6.5" font-family="monospace" fill="#64748b">N11</text></g><g><line x1="450" y1="501" x2="463" y2="501" stroke="#1e293b" stroke-width="1.2"/><text x="466" y="503.5" text-anchor="start" font-size="6.5" font-family="monospace" fill="#64748b">N11</text></g><g><line x1="390" y1="429" x2="377" y2="429" stroke="#1e293b" stroke-width="1.2"/><text x="374" y="431.5" text-anchor="end" font-size="6.5" font-family="monospace" fill="#64748b">N12</text></g><g><line x1="600" y1="83" x2="613" y2="83" stroke="#1e293b" stroke-width="1.2"/><text x="616" y="85.5" text-anchor="start" font-size="6.5" font-family="monospace" fill="#64748b">N12</text></g><g><line x1="240" y1="445" x2="227" y2="445" stroke="#1e293b" stroke-width="1.2"/><text x="224" y="447.5" text-anchor="end" font-size="6.5" font-family="monospace" fill="#64748b">VCC</text></g><g><line x1="300" y1="445" x2="313" y2="445" stroke="#1e293b" stroke-width="1.2"/><text x="316" y="447.5" text-anchor="start" font-size="6.5" font-family="monospace" fill="#64748b">VCC</text></g><g><line x1="90" y1="83" x2="77" y2="83" stroke="#1e293b" stroke-width="1.2"/><text x="74" y="85.5" text-anchor="end" font-size="6.5" font-family="monospace" fill="#64748b">VCC</text></g><g><line x1="240" y1="694" x2="227" y2="694" stroke="#1e293b" stroke-width="1.2"/><text x="224" y="696.5" text-anchor="end" font-size="6.5" font-family="monospace" fill="#64748b">VCC</text></g><g><line x1="240" y1="181" x2="227" y2="181" stroke="#1e293b" stroke-width="1.2"/><text x="224" y="183.5" text-anchor="end" font-size="6.5" font-family="monospace" fill="#64748b">VCC</text></g><g><line x1="240" y1="79" x2="227" y2="79" stroke="#1e293b" stroke-width="1.2"/><text x="224" y="81.5" text-anchor="end" font-size="6.5" font-family="monospace" fill="#64748b">VCC</text></g><g><line x1="240" y1="619" x2="227" y2="619" stroke="#1e293b" stroke-width="1.2"/><text x="224" y="621.5" text-anchor="end" font-size="6.5" font-family="monospace" fill="#64748b">VCC</text></g><g><line x1="240" y1="481" x2="227" y2="481" stroke="#1e293b" stroke-width="1.2"/><text x="224" y="483.5" text-anchor="end" font-size="6.5" font-family="monospace" fill="#64748b">GND</text></g><g><line x1="300" y1="481" x2="313" y2="481" stroke="#1e293b" stroke-width="1.2"/><text x="316" y="483.5" text-anchor="start" font-size="6.5" font-family="monospace" fill="#64748b">GND</text></g><g><line x1="390" y1="585" x2="377" y2="585" stroke="#1e293b" stroke-width="1.2"/><text x="374" y="587.5" text-anchor="end" font-size="6.5" font-family="monospace" fill="#64748b">GND</text></g><g><line x1="300" y1="694" x2="313" y2="694" stroke="#1e293b" stroke-width="1.2"/><text x="316" y="696.5" text-anchor="start" font-size="6.5" font-family="monospace" fill="#64748b">GND</text></g><g><line x1="450" y1="655" x2="463" y2="655" stroke="#1e293b" stroke-width="1.2"/><text x="466" y="657.5" text-anchor="start" font-size="6.5" font-family="monospace" fill="#64748b">GND</text></g><g><line x1="450" y1="153" x2="463" y2="153" stroke="#1e293b" stroke-width="1.2"/><text x="466" y="155.5" text-anchor="start" font-size="6.5" font-family="monospace" fill="#64748b">GND</text></g><g><line x1="240" y1="97" x2="227" y2="97" stroke="#1e293b" stroke-width="1.2"/><text x="224" y="99.5" text-anchor="end" font-size="6.5" font-family="monospace" fill="#64748b">GND</text></g><g><line x1="450" y1="223" x2="463" y2="223" stroke="#1e293b" stroke-width="1.2"/><text x="466" y="225.5" text-anchor="start" font-size="6.5" font-family="monospace" fill="#64748b">GND</text></g><g><line x1="750" y1="83" x2="763" y2="83" stroke="#1e293b" stroke-width="1.2"/><text x="766" y="85.5" text-anchor="start" font-size="6.5" font-family="monospace" fill="#64748b">GND</text></g><g><line x1="450" y1="363" x2="463" y2="363" stroke="#1e293b" stroke-width="1.2"/><text x="466" y="365.5" text-anchor="start" font-size="6.5" font-family="monospace" fill="#64748b">GND</text></g><g><line x1="450" y1="293" x2="463" y2="293" stroke="#1e293b" stroke-width="1.2"/><text x="466" y="295.5" text-anchor="start" font-size="6.5" font-family="monospace" fill="#64748b">GND</text></g><g><line x1="270" y1="664" x2="270" y2="651" stroke="#1e293b" stroke-width="1.2"/><text x="270" y="646" text-anchor="middle" font-size="6.5" font-family="monospace" fill="#64748b">N15</text></g><g><line x1="690" y1="153" x2="677" y2="153" stroke="#1e293b" stroke-width="1.2"/><text x="674" y="155.5" text-anchor="end" font-size="6.5" font-family="monospace" fill="#64748b">N15</text></g><g><line x1="240" y1="391" x2="227" y2="391" stroke="#1e293b" stroke-width="1.2"/><text x="224" y="393.5" text-anchor="end" font-size="6.5" font-family="monospace" fill="#64748b">N16</text></g><g><line x1="300" y1="391" x2="313" y2="391" stroke="#1e293b" stroke-width="1.2"/><text x="316" y="393.5" text-anchor="start" font-size="6.5" font-family="monospace" fill="#64748b">N16</text></g><g><line x1="750" y1="153" x2="763" y2="153" stroke="#1e293b" stroke-width="1.2"/><text x="766" y="155.5" text-anchor="start" font-size="6.5" font-family="monospace" fill="#64748b">N16</text></g><g><line x1="390" y1="655" x2="377" y2="655" stroke="#1e293b" stroke-width="1.2"/><text x="374" y="657.5" text-anchor="end" font-size="6.5" font-family="monospace" fill="#64748b">N16</text></g><g><line x1="270" y1="151" x2="270" y2="138" stroke="#1e293b" stroke-width="1.2"/><text x="270" y="133" text-anchor="middle" font-size="6.5" font-family="monospace" fill="#64748b">N17</text></g><g><line x1="390" y1="153" x2="377" y2="153" stroke="#1e293b" stroke-width="1.2"/><text x="374" y="155.5" text-anchor="end" font-size="6.5" font-family="monospace" fill="#64748b">N17</text></g><g><line x1="240" y1="115" x2="227" y2="115" stroke="#1e293b" stroke-width="1.2"/><text x="224" y="117.5" text-anchor="end" font-size="6.5" font-family="monospace" fill="#64748b">N17</text></g><g><line x1="240" y1="409" x2="227" y2="409" stroke="#1e293b" stroke-width="1.2"/><text x="224" y="411.5" text-anchor="end" font-size="6.5" font-family="monospace" fill="#64748b">N18</text></g><g><line x1="300" y1="409" x2="313" y2="409" stroke="#1e293b" stroke-width="1.2"/><text x="316" y="411.5" text-anchor="start" font-size="6.5" font-family="monospace" fill="#64748b">N18</text></g><g><line x1="300" y1="97" x2="313" y2="97" stroke="#1e293b" stroke-width="1.2"/><text x="316" y="99.5" text-anchor="start" font-size="6.5" font-family="monospace" fill="#64748b">N18</text></g><g><line x1="390" y1="83" x2="377" y2="83" stroke="#1e293b" stroke-width="1.2"/><text x="374" y="85.5" text-anchor="end" font-size="6.5" font-family="monospace" fill="#64748b">N18</text></g><g><line x1="300" y1="79" x2="313" y2="79" stroke="#1e293b" stroke-width="1.2"/><text x="316" y="81.5" text-anchor="start" font-size="6.5" font-family="monospace" fill="#64748b">N19</text></g><g><line x1="450" y1="83" x2="463" y2="83" stroke="#1e293b" stroke-width="1.2"/><text x="466" y="85.5" text-anchor="start" font-size="6.5" font-family="monospace" fill="#64748b">N19</text></g><g><line x1="390" y1="223" x2="377" y2="223" stroke="#1e293b" stroke-width="1.2"/><text x="374" y="225.5" text-anchor="end" font-size="6.5" font-family="monospace" fill="#64748b">N19</text></g><g><line x1="240" y1="427" x2="227" y2="427" stroke="#1e293b" stroke-width="1.2"/><text x="224" y="429.5" text-anchor="end" font-size="6.5" font-family="monospace" fill="#64748b">N20</text></g><g><line x1="300" y1="427" x2="313" y2="427" stroke="#1e293b" stroke-width="1.2"/><text x="316" y="429.5" text-anchor="start" font-size="6.5" font-family="monospace" fill="#64748b">N20</text></g><g><line x1="300" y1="619" x2="313" y2="619" stroke="#1e293b" stroke-width="1.2"/><text x="316" y="621.5" text-anchor="start" font-size="6.5" font-family="monospace" fill="#64748b">N20</text></g><g><line x1="690" y1="83" x2="677" y2="83" stroke="#1e293b" stroke-width="1.2"/><text x="674" y="85.5" text-anchor="end" font-size="6.5" font-family="monospace" fill="#64748b">N20</text></g><g><line x1="240" y1="463" x2="227" y2="463" stroke="#1e293b" stroke-width="1.2"/><text x="224" y="465.5" text-anchor="end" font-size="6.5" font-family="monospace" fill="#64748b">N21</text></g><g><line x1="300" y1="463" x2="313" y2="463" stroke="#1e293b" stroke-width="1.2"/><text x="316" y="465.5" text-anchor="start" font-size="6.5" font-family="monospace" fill="#64748b">N21</text></g><g><line x1="390" y1="363" x2="377" y2="363" stroke="#1e293b" stroke-width="1.2"/><text x="374" y="365.5" text-anchor="end" font-size="6.5" font-family="monospace" fill="#64748b">N21</text></g><g><line x1="240" y1="553" x2="227" y2="553" stroke="#1e293b" stroke-width="1.2"/><text x="224" y="555.5" text-anchor="end" font-size="6.5" font-family="monospace" fill="#64748b">N22</text></g><g><line x1="300" y1="553" x2="313" y2="553" stroke="#1e293b" stroke-width="1.2"/><text x="316" y="555.5" text-anchor="start" font-size="6.5" font-family="monospace" fill="#64748b">N22</text></g><g><line x1="390" y1="293" x2="377" y2="293" stroke="#1e293b" stroke-width="1.2"/><text x="374" y="295.5" text-anchor="end" font-size="6.5" font-family="monospace" fill="#64748b">N22</text></g><g><line x1="240" y1="265" x2="227" y2="265" stroke="#1e293b" stroke-width="1.2"/><text x="224" y="267.5" text-anchor="end" font-size="6.5" font-family="monospace" fill="#64748b">N23</text></g><g><line x1="300" y1="265" x2="313" y2="265" stroke="#1e293b" stroke-width="1.2"/><text x="316" y="267.5" text-anchor="start" font-size="6.5" font-family="monospace" fill="#64748b">N23</text></g><g><line x1="540" y1="153" x2="527" y2="153" stroke="#1e293b" stroke-width="1.2"/><text x="524" y="155.5" text-anchor="end" font-size="6.5" font-family="monospace" fill="#64748b">N23</text></g><g><line x1="390" y1="447" x2="377" y2="447" stroke="#1e293b" stroke-width="1.2"/><text x="374" y="449.5" text-anchor="end" font-size="6.5" font-family="monospace" fill="#64748b">N24</text></g><g><line x1="600" y1="153" x2="613" y2="153" stroke="#1e293b" stroke-width="1.2"/><text x="616" y="155.5" text-anchor="start" font-size="6.5" font-family="monospace" fill="#64748b">N24</text></g><g><line x1="240" y1="283" x2="227" y2="283" stroke="#1e293b" stroke-width="1.2"/><text x="224" y="285.5" text-anchor="end" font-size="6.5" font-family="monospace" fill="#64748b">N25</text></g><g><line x1="300" y1="283" x2="313" y2="283" stroke="#1e293b" stroke-width="1.2"/><text x="316" y="285.5" text-anchor="start" font-size="6.5" font-family="monospace" fill="#64748b">N25</text></g><g><line x1="540" y1="223" x2="527" y2="223" stroke="#1e293b" stroke-width="1.2"/><text x="524" y="225.5" text-anchor="end" font-size="6.5" font-family="monospace" fill="#64748b">N25</text></g><g><line x1="390" y1="465" x2="377" y2="465" stroke="#1e293b" stroke-width="1.2"/><text x="374" y="467.5" text-anchor="end" font-size="6.5" font-family="monospace" fill="#64748b">N26</text></g><g><line x1="600" y1="223" x2="613" y2="223" stroke="#1e293b" stroke-width="1.2"/><text x="616" y="225.5" text-anchor="start" font-size="6.5" font-family="monospace" fill="#64748b">N26</text></g><g><line x1="240" y1="301" x2="227" y2="301" stroke="#1e293b" stroke-width="1.2"/><text x="224" y="303.5" text-anchor="end" font-size="6.5" font-family="monospace" fill="#64748b">N27</text></g><g><line x1="300" y1="301" x2="313" y2="301" stroke="#1e293b" stroke-width="1.2"/><text x="316" y="303.5" text-anchor="start" font-size="6.5" font-family="monospace" fill="#64748b">N27</text></g><g><line x1="540" y1="293" x2="527" y2="293" stroke="#1e293b" stroke-width="1.2"/><text x="524" y="295.5" text-anchor="end" font-size="6.5" font-family="monospace" fill="#64748b">N27</text></g><g><line x1="390" y1="483" x2="377" y2="483" stroke="#1e293b" stroke-width="1.2"/><text x="374" y="485.5" text-anchor="end" font-size="6.5" font-family="monospace" fill="#64748b">N28</text></g><g><line x1="600" y1="293" x2="613" y2="293" stroke="#1e293b" stroke-width="1.2"/><text x="616" y="295.5" text-anchor="start" font-size="6.5" font-family="monospace" fill="#64748b">N28</text></g><g><line x1="240" y1="319" x2="227" y2="319" stroke="#1e293b" stroke-width="1.2"/><text x="224" y="321.5" text-anchor="end" font-size="6.5" font-family="monospace" fill="#64748b">N29</text></g><g><line x1="300" y1="319" x2="313" y2="319" stroke="#1e293b" stroke-width="1.2"/><text x="316" y="321.5" text-anchor="start" font-size="6.5" font-family="monospace" fill="#64748b">N29</text></g><g><line x1="540" y1="363" x2="527" y2="363" stroke="#1e293b" stroke-width="1.2"/><text x="524" y="365.5" text-anchor="end" font-size="6.5" font-family="monospace" fill="#64748b">N29</text></g><g transform="translate(270 400)" stroke="#1e293b" stroke-width="1.6" fill="none" stroke-linecap="round"><rect x="-26" y="-169" width="52" height="338" rx="2"/><path d="M -26 -153 L -30 -153" stroke-width="1.2"/><text x="-22" y="-150.5" text-anchor="start" font-size="6.5" font-family="monospace" fill="#64748b" stroke="none">P0.0</text><path d="M -26 -135 L -30 -135" stroke-width="1.2"/><text x="-22" y="-132.5" text-anchor="start" font-size="6.5" font-family="monospace" fill="#64748b" stroke="none">P0.1</text><path d="M -26 -117 L -30 -117" stroke-width="1.2"/><text x="-22" y="-114.5" text-anchor="start" font-size="6.5" font-family="monospace" fill="#64748b" stroke="none">P0.2</text><path d="M -26 -99 L -30 -99" stroke-width="1.2"/><text x="-22" y="-96.5" text-anchor="start" font-size="6.5" font-family="monospace" fill="#64748b" stroke="none">P0.3</text><path d="M -26 -81 L -30 -81" stroke-width="1.2"/><text x="-22" y="-78.5" text-anchor="start" font-size="6.5" font-family="monospace" fill="#64748b" stroke="none">P0.4</text><path d="M -26 -63 L -30 -63" stroke-width="1.2"/><text x="-22" y="-60.5" text-anchor="start" font-size="6.5" font-family="monospace" fill="#64748b" stroke="none">P0.5</text><path d="M -26 -45 L -30 -45" stroke-width="1.2"/><text x="-22" y="-42.5" text-anchor="start" font-size="6.5" font-family="monospace" fill="#64748b" stroke="none">P0.6</text><path d="M -26 -27 L -30 -27" stroke-width="1.2"/><text x="-22" y="-24.5" text-anchor="start" font-size="6.5" font-family="monospace" fill="#64748b" stroke="none">P0.7</text><path d="M -26 -9 L -30 -9" stroke-width="1.2"/><text x="-22" y="-6.5" text-anchor="start" font-size="6.5" font-family="monospace" fill="#64748b" stroke="none">P1.0</text><path d="M -26 9 L -30 9" stroke-width="1.2"/><text x="-22" y="11.5" text-anchor="start" font-size="6.5" font-family="monospace" fill="#64748b" stroke="none">P1.1</text><path d="M -26 27 L -30 27" stroke-width="1.2"/><text x="-22" y="29.5" text-anchor="start" font-size="6.5" font-family="monospace" fill="#64748b" stroke="none">P1.2</text><path d="M -26 45 L -30 45" stroke-width="1.2"/><text x="-22" y="47.5" text-anchor="start" font-size="6.5" font-family="monospace" fill="#64748b" stroke="none">VCC</text><path d="M -26 63 L -30 63" stroke-width="1.2"/><text x="-22" y="65.5" text-anchor="start" font-size="6.5" font-family="monospace" fill="#64748b" stroke="none">P5.5</text><path d="M -26 81 L -30 81" stroke-width="1.2"/><text x="-22" y="83.5" text-anchor="start" font-size="6.5" font-family="monospace" fill="#64748b" stroke="none">GND</text><path d="M -26 99 L -30 99" stroke-width="1.2"/><text x="-22" y="101.5" text-anchor="start" font-size="6.5" font-family="monospace" fill="#64748b" stroke="none">P2.2</text><path d="M -26 117 L -30 117" stroke-width="1.2"/><text x="-22" y="119.5" text-anchor="start" font-size="6.5" font-family="monospace" fill="#64748b" stroke="none">P2.1</text><path d="M -26 135 L -30 135" stroke-width="1.2"/><text x="-22" y="137.5" text-anchor="start" font-size="6.5" font-family="monospace" fill="#64748b" stroke="none">P2.0</text><path d="M -26 153 L -30 153" stroke-width="1.2"/><text x="-22" y="155.5" text-anchor="start" font-size="6.5" font-family="monospace" fill="#64748b" stroke="none">P3.2</text><path d="M 26 -153 L 30 -153" stroke-width="1.2"/><text x="22" y="-150.5" text-anchor="end" font-size="6.5" font-family="monospace" fill="#64748b" stroke="none">p0.0</text><path d="M 26 -135 L 30 -135" stroke-width="1.2"/><text x="22" y="-132.5" text-anchor="end" font-size="6.5" font-family="monospace" fill="#64748b" stroke="none">p0.1</text><path d="M 26 -117 L 30 -117" stroke-width="1.2"/><text x="22" y="-114.5" text-anchor="end" font-size="6.5" font-family="monospace" fill="#64748b" stroke="none">p0.2</text><path d="M 26 -99 L 30 -99" stroke-width="1.2"/><text x="22" y="-96.5" text-anchor="end" font-size="6.5" font-family="monospace" fill="#64748b" stroke="none">p0.3</text><path d="M 26 -81 L 30 -81" stroke-width="1.2"/><text x="22" y="-78.5" text-anchor="end" font-size="6.5" font-family="monospace" fill="#64748b" stroke="none">p0.4</text><path d="M 26 -63 L 30 -63" stroke-width="1.2"/><text x="22" y="-60.5" text-anchor="end" font-size="6.5" font-family="monospace" fill="#64748b" stroke="none">p0.5</text><path d="M 26 -45 L 30 -45" stroke-width="1.2"/><text x="22" y="-42.5" text-anchor="end" font-size="6.5" font-family="monospace" fill="#64748b" stroke="none">p0.6</text><path d="M 26 -27 L 30 -27" stroke-width="1.2"/><text x="22" y="-24.5" text-anchor="end" font-size="6.5" font-family="monospace" fill="#64748b" stroke="none">p0.7</text><path d="M 26 -9 L 30 -9" stroke-width="1.2"/><text x="22" y="-6.5" text-anchor="end" font-size="6.5" font-family="monospace" fill="#64748b" stroke="none">p1.0</text><path d="M 26 9 L 30 9" stroke-width="1.2"/><text x="22" y="11.5" text-anchor="end" font-size="6.5" font-family="monospace" fill="#64748b" stroke="none">p1.1</text><path d="M 26 27 L 30 27" stroke-width="1.2"/><text x="22" y="29.5" text-anchor="end" font-size="6.5" font-family="monospace" fill="#64748b" stroke="none">p1.2</text><path d="M 26 45 L 30 45" stroke-width="1.2"/><text x="22" y="47.5" text-anchor="end" font-size="6.5" font-family="monospace" fill="#64748b" stroke="none">vcc</text><path d="M 26 63 L 30 63" stroke-width="1.2"/><text x="22" y="65.5" text-anchor="end" font-size="6.5" font-family="monospace" fill="#64748b" stroke="none">p5.5</text><path d="M 26 81 L 30 81" stroke-width="1.2"/><text x="22" y="83.5" text-anchor="end" font-size="6.5" font-family="monospace" fill="#64748b" stroke="none">gnd</text><path d="M 26 99 L 30 99" stroke-width="1.2"/><text x="22" y="101.5" text-anchor="end" font-size="6.5" font-family="monospace" fill="#64748b" stroke="none">p2.2</text><path d="M 26 117 L 30 117" stroke-width="1.2"/><text x="22" y="119.5" text-anchor="end" font-size="6.5" font-family="monospace" fill="#64748b" stroke="none">p2.1</text><path d="M 26 135 L 30 135" stroke-width="1.2"/><text x="22" y="137.5" text-anchor="end" font-size="6.5" font-family="monospace" fill="#64748b" stroke="none">p2.0</text><path d="M 26 153 L 30 153" stroke-width="1.2"/><text x="22" y="155.5" text-anchor="end" font-size="6.5" font-family="monospace" fill="#64748b" stroke="none">p3.2</text><text x="0" y="-160" text-anchor="middle" font-size="7" font-family="monospace" fill="#1e293b" stroke="none">stc15_mcu</text><text x="0" y="-24" text-anchor="middle" font-size="9" font-family="monospace" fill="#64748b" stroke="none">mcu1</text></g><g transform="translate(420 474)" stroke="#1e293b" stroke-width="1.6" fill="none" stroke-linecap="round"><rect x="-26" y="-61" width="52" height="122" rx="2"/><path d="M -26 -45 L -30 -45" stroke-width="1.2"/><text x="-22" y="-42.5" text-anchor="start" font-size="6.5" font-family="monospace" fill="#64748b" stroke="none">a</text><path d="M -26 -27 L -30 -27" stroke-width="1.2"/><text x="-22" y="-24.5" text-anchor="start" font-size="6.5" font-family="monospace" fill="#64748b" stroke="none">b</text><path d="M -26 -9 L -30 -9" stroke-width="1.2"/><text x="-22" y="-6.5" text-anchor="start" font-size="6.5" font-family="monospace" fill="#64748b" stroke="none">c</text><path d="M -26 9 L -30 9" stroke-width="1.2"/><text x="-22" y="11.5" text-anchor="start" font-size="6.5" font-family="monospace" fill="#64748b" stroke="none">d</text><path d="M -26 27 L -30 27" stroke-width="1.2"/><text x="-22" y="29.5" text-anchor="start" font-size="6.5" font-family="monospace" fill="#64748b" stroke="none">e</text><path d="M -26 45 L -30 45" stroke-width="1.2"/><text x="-22" y="47.5" text-anchor="start" font-size="6.5" font-family="monospace" fill="#64748b" stroke="none">f</text><path d="M 26 -45 L 30 -45" stroke-width="1.2"/><text x="22" y="-42.5" text-anchor="end" font-size="6.5" font-family="monospace" fill="#64748b" stroke="none">g</text><path d="M 26 -27 L 30 -27" stroke-width="1.2"/><text x="22" y="-24.5" text-anchor="end" font-size="6.5" font-family="monospace" fill="#64748b" stroke="none">dp</text><path d="M 26 -9 L 30 -9" stroke-width="1.2"/><text x="22" y="-6.5" text-anchor="end" font-size="6.5" font-family="monospace" fill="#64748b" stroke="none">com0</text><path d="M 26 9 L 30 9" stroke-width="1.2"/><text x="22" y="11.5" text-anchor="end" font-size="6.5" font-family="monospace" fill="#64748b" stroke="none">com1</text><path d="M 26 27 L 30 27" stroke-width="1.2"/><text x="22" y="29.5" text-anchor="end" font-size="6.5" font-family="monospace" fill="#64748b" stroke="none">com2</text><text x="0" y="-52" text-anchor="middle" font-size="7" font-family="monospace" fill="#1e293b" stroke="none">seven_seg</text><text x="0" y="-24" text-anchor="middle" font-size="9" font-family="monospace" fill="#64748b" stroke="none">dis1</text></g><g transform="translate(120 83)" stroke="#1e293b" stroke-width="1.6" fill="none" stroke-linecap="round"><path d="M -30 0 L 0 0 L 0 -10 M -6 -10 L 6 -10"/><text x="0" y="-24" text-anchor="middle" font-size="9" font-family="monospace" fill="#64748b" stroke="none">vcc1</text></g><g transform="translate(420 585)" stroke="#1e293b" stroke-width="1.6" fill="none" stroke-linecap="round"><path d="M -30 0 L 0 0 L 0 8 M -9 8 L 9 8 M -6 12 L 6 12 M -3 16 L 3 16"/><text x="0" y="-24" text-anchor="middle" font-size="9" font-family="monospace" fill="#64748b" stroke="none">gnd1</text></g><g transform="translate(570 83)" stroke="#1e293b" stroke-width="1.6" fill="none" stroke-linecap="round"><path d="M -30 0 L -18 0 L -14 -7 L -6 7 L 2 -7 L 10 7 L 14 0 L 30 0"/><text x="0" y="19" text-anchor="middle" font-size="8" font-family="monospace" fill="#64748b" stroke="none">220Ω</text><text x="0" y="-24" text-anchor="middle" font-size="9" font-family="monospace" fill="#64748b" stroke="none">sr0</text></g><g transform="translate(570 153)" stroke="#1e293b" stroke-width="1.6" fill="none" stroke-linecap="round"><path d="M -30 0 L -18 0 L -14 -7 L -6 7 L 2 -7 L 10 7 L 14 0 L 30 0"/><text x="0" y="19" text-anchor="middle" font-size="8" font-family="monospace" fill="#64748b" stroke="none">220Ω</text><text x="0" y="-24" text-anchor="middle" font-size="9" font-family="monospace" fill="#64748b" stroke="none">sr1</text></g><g transform="translate(570 223)" stroke="#1e293b" stroke-width="1.6" fill="none" stroke-linecap="round"><path d="M -30 0 L -18 0 L -14 -7 L -6 7 L 2 -7 L 10 7 L 14 0 L 30 0"/><text x="0" y="19" text-anchor="middle" font-size="8" font-family="monospace" fill="#64748b" stroke="none">220Ω</text><text x="0" y="-24" text-anchor="middle" font-size="9" font-family="monospace" fill="#64748b" stroke="none">sr2</text></g><g transform="translate(570 293)" stroke="#1e293b" stroke-width="1.6" fill="none" stroke-linecap="round"><path d="M -30 0 L -18 0 L -14 -7 L -6 7 L 2 -7 L 10 7 L 14 0 L 30 0"/><text x="0" y="19" text-anchor="middle" font-size="8" font-family="monospace" fill="#64748b" stroke="none">220Ω</text><text x="0" y="-24" text-anchor="middle" font-size="9" font-family="monospace" fill="#64748b" stroke="none">sr3</text></g><g transform="translate(570 363)" stroke="#1e293b" stroke-width="1.6" fill="none" stroke-linecap="round"><path d="M -30 0 L -18 0 L -14 -7 L -6 7 L 2 -7 L 10 7 L 14 0 L 30 0"/><text x="0" y="19" text-anchor="middle" font-size="8" font-family="monospace" fill="#64748b" stroke="none">220Ω</text><text x="0" y="-24" text-anchor="middle" font-size="9" font-family="monospace" fill="#64748b" stroke="none">sr4</text></g><g transform="translate(570 433)" stroke="#1e293b" stroke-width="1.6" fill="none" stroke-linecap="round"><path d="M -30 0 L -18 0 L -14 -7 L -6 7 L 2 -7 L 10 7 L 14 0 L 30 0"/><text x="0" y="19" text-anchor="middle" font-size="8" font-family="monospace" fill="#64748b" stroke="none">220Ω</text><text x="0" y="-24" text-anchor="middle" font-size="9" font-family="monospace" fill="#64748b" stroke="none">sr5</text></g><g transform="translate(570 503)" stroke="#1e293b" stroke-width="1.6" fill="none" stroke-linecap="round"><path d="M -30 0 L -18 0 L -14 -7 L -6 7 L 2 -7 L 10 7 L 14 0 L 30 0"/><text x="0" y="19" text-anchor="middle" font-size="8" font-family="monospace" fill="#64748b" stroke="none">220Ω</text><text x="0" y="-24" text-anchor="middle" font-size="9" font-family="monospace" fill="#64748b" stroke="none">sr6</text></g><g transform="translate(570 573)" stroke="#1e293b" stroke-width="1.6" fill="none" stroke-linecap="round"><path d="M -30 0 L -18 0 L -14 -7 L -6 7 L 2 -7 L 10 7 L 14 0 L 30 0"/><text x="0" y="19" text-anchor="middle" font-size="8" font-family="monospace" fill="#64748b" stroke="none">220Ω</text><text x="0" y="-24" text-anchor="middle" font-size="9" font-family="monospace" fill="#64748b" stroke="none">sr7</text></g><g transform="translate(270 694)" stroke="#1e293b" stroke-width="1.6" fill="none" stroke-linecap="round"><path d="M -30 0 L -18 0 L -14 -7 L -6 7 L 2 -7 L 10 7 L 14 0 L 30 0"/><path d="M 0 -30 L 0 -6 M -4 -10 L 0 -6 L 4 -10"/><text x="0" y="-24" text-anchor="middle" font-size="9" font-family="monospace" fill="#64748b" stroke="none">vsrc1</text></g><g transform="translate(720 153)" stroke="#1e293b" stroke-width="1.6" fill="none" stroke-linecap="round"><path d="M -30 0 L -18 0 L -14 -7 L -6 7 L 2 -7 L 10 7 L 14 0 L 30 0"/><text x="0" y="19" text-anchor="middle" font-size="8" font-family="monospace" fill="#64748b" stroke="none">30kΩ</text><text x="0" y="-24" text-anchor="middle" font-size="9" font-family="monospace" fill="#64748b" stroke="none">rv1</text></g><g transform="translate(420 655)" stroke="#1e293b" stroke-width="1.6" fill="none" stroke-linecap="round"><path d="M -30 0 L -18 0 L -14 -7 L -6 7 L 2 -7 L 10 7 L 14 0 L 30 0"/><text x="0" y="19" text-anchor="middle" font-size="8" font-family="monospace" fill="#64748b" stroke="none">10kΩ</text><text x="0" y="-24" text-anchor="middle" font-size="9" font-family="monospace" fill="#64748b" stroke="none">rv2</text></g><g transform="translate(270 181)" stroke="#1e293b" stroke-width="1.6" fill="none" stroke-linecap="round"><path d="M -30 0 L -18 0 L -14 -7 L -6 7 L 2 -7 L 10 7 L 14 0 L 30 0"/><path d="M 0 -30 L 0 -6 M -4 -10 L 0 -6 L 4 -10"/><text x="0" y="-24" text-anchor="middle" font-size="9" font-family="monospace" fill="#64748b" stroke="none">load1</text></g><g transform="translate(420 153)" stroke="#1e293b" stroke-width="1.6" fill="none" stroke-linecap="round"><path d="M -30 0 L -18 0 L -14 -7 L -6 7 L 2 -7 L 10 7 L 14 0 L 30 0"/><text x="0" y="19" text-anchor="middle" font-size="8" font-family="monospace" fill="#64748b" stroke="none">0.02Ω</text><text x="0" y="-24" text-anchor="middle" font-size="9" font-family="monospace" fill="#64748b" stroke="none">shunt1</text></g><g transform="translate(270 97)" stroke="#1e293b" stroke-width="1.6" fill="none" stroke-linecap="round"><rect x="-26" y="-34" width="52" height="68" rx="2"/><path d="M -26 -18 L -30 -18" stroke-width="1.2"/><text x="-22" y="-15.5" text-anchor="start" font-size="6.5" font-family="monospace" fill="#64748b" stroke="none">vcc</text><path d="M -26 0 L -30 0" stroke-width="1.2"/><text x="-22" y="2.5" text-anchor="start" font-size="6.5" font-family="monospace" fill="#64748b" stroke="none">gnd</text><path d="M -26 18 L -30 18" stroke-width="1.2"/><text x="-22" y="20.5" text-anchor="start" font-size="6.5" font-family="monospace" fill="#64748b" stroke="none">1_pos</text><path d="M 26 -18 L 30 -18" stroke-width="1.2"/><text x="22" y="-15.5" text-anchor="end" font-size="6.5" font-family="monospace" fill="#64748b" stroke="none">1_neg</text><path d="M 26 0 L 30 0" stroke-width="1.2"/><text x="22" y="2.5" text-anchor="end" font-size="6.5" font-family="monospace" fill="#64748b" stroke="none">1_out</text><text x="0" y="-25" text-anchor="middle" font-size="7" font-family="monospace" fill="#1e293b" stroke="none">lm358</text><text x="0" y="-24" text-anchor="middle" font-size="9" font-family="monospace" fill="#64748b" stroke="none">amp1</text></g><g transform="translate(420 83)" stroke="#1e293b" stroke-width="1.6" fill="none" stroke-linecap="round"><path d="M -30 0 L -18 0 L -14 -7 L -6 7 L 2 -7 L 10 7 L 14 0 L 30 0"/><text x="0" y="19" text-anchor="middle" font-size="8" font-family="monospace" fill="#64748b" stroke="none">100kΩ</text><text x="0" y="-24" text-anchor="middle" font-size="9" font-family="monospace" fill="#64748b" stroke="none">rg1</text></g><g transform="translate(420 223)" stroke="#1e293b" stroke-width="1.6" fill="none" stroke-linecap="round"><path d="M -30 0 L -18 0 L -14 -7 L -6 7 L 2 -7 L 10 7 L 14 0 L 30 0"/><text x="0" y="19" text-anchor="middle" font-size="8" font-family="monospace" fill="#64748b" stroke="none">2.2kΩ</text><text x="0" y="-24" text-anchor="middle" font-size="9" font-family="monospace" fill="#64748b" stroke="none">rg2</text></g><g transform="translate(270 619)" stroke="#1e293b" stroke-width="1.6" fill="none" stroke-linecap="round"><path d="M -30 0 L -18 0 L -14 -7 L -6 7 L 2 -7 L 10 7 L 14 0 L 30 0"/><text x="0" y="-24" text-anchor="middle" font-size="9" font-family="monospace" fill="#64748b" stroke="none">ntc1</text></g><g transform="translate(720 83)" stroke="#1e293b" stroke-width="1.6" fill="none" stroke-linecap="round"><path d="M -30 0 L -18 0 L -14 -7 L -6 7 L 2 -7 L 10 7 L 14 0 L 30 0"/><text x="0" y="19" text-anchor="middle" font-size="8" font-family="monospace" fill="#64748b" stroke="none">10kΩ</text><text x="0" y="-24" text-anchor="middle" font-size="9" font-family="monospace" fill="#64748b" stroke="none">rt1</text></g><g transform="translate(420 363)" stroke="#1e293b" stroke-width="1.6" fill="none" stroke-linecap="round"><path d="M -30 0 L -11 0 M 11 0 L 30 0"/><circle cx="0" cy="0" r="11"/><text x="0" y="4" text-anchor="middle" font-size="9" font-family="monospace" fill="#1e293b" stroke="none">♪</text><text x="0" y="-24" text-anchor="middle" font-size="9" font-family="monospace" fill="#64748b" stroke="none">bz1</text></g><g transform="translate(420 293)" stroke="#1e293b" stroke-width="1.6" fill="none" stroke-linecap="round"><path d="M -30 0 L -10 0 M 10 0 L 30 0"/><path d="M -10 0 L 8 -10"/><circle cx="-10" cy="0" r="2"/><circle cx="10" cy="0" r="2"/><text x="0" y="-24" text-anchor="middle" font-size="9" font-family="monospace" fill="#64748b" stroke="none">btn1</text></g></svg>
